<?xml version="1.0" encoding="utf-8"?>
<!-- Generator: Adobe Illustrator 24.1.1, SVG Export Plug-In . SVG Version: 6.00 Build 0)  -->
<svg version="1.1" xmlns="http://www.w3.org/2000/svg" xmlns:xlink="http://www.w3.org/1999/xlink" x="0px" y="0px"
	 viewBox="0 0 2475 1650" style="enable-background:new 0 0 2475 1650;" xml:space="preserve">
<style type="text/css">
	.st0{opacity:0.81;}
	.st1{fill:#BDD0FB;}
	.st2{fill:#DCE5FE;}
	.st3{opacity:0.88;}
	.st4{fill:#244991;}
	.st5{opacity:0.8;}
	.st6{fill:#91B3FA;}
	.st7{fill:#FFFFFF;}
	.st8{fill:#26256A;}
	.st9{fill:#0B0B44;}
	.st10{fill:#12124F;}
	.st11{fill:url(#SVGID_1_);}
	.st12{fill:url(#SVGID_2_);}
	.st13{fill:url(#SVGID_3_);}
	.st14{fill:url(#SVGID_4_);}
	.st15{fill:url(#SVGID_5_);}
	.st16{fill:url(#SVGID_6_);}
	.st17{fill:url(#SVGID_7_);}
	.st18{fill:url(#SVGID_8_);}
	.st19{fill:url(#SVGID_9_);}
	.st20{fill:url(#SVGID_10_);}
	.st21{fill:url(#SVGID_11_);}
	.st22{fill:url(#SVGID_12_);}
	.st23{fill:url(#SVGID_13_);}
	.st24{fill:url(#SVGID_14_);}
	.st25{fill:url(#SVGID_15_);}
	.st26{fill:#7D97F4;}
	.st27{fill:url(#SVGID_16_);}
	.st28{fill:url(#SVGID_17_);}
	.st29{fill:url(#SVGID_18_);}
	.st30{fill:url(#SVGID_19_);}
	.st31{fill:url(#SVGID_20_);}
	.st32{fill:url(#SVGID_21_);}
	.st33{fill:url(#SVGID_22_);}
	.st34{fill:url(#SVGID_23_);}
	.st35{fill:url(#SVGID_24_);}
	.st36{fill:url(#SVGID_25_);}
	.st37{fill:url(#SVGID_26_);}
	.st38{fill:url(#SVGID_27_);}
	.st39{fill:url(#SVGID_28_);}
	.st40{fill:url(#SVGID_29_);}
	.st41{fill:url(#SVGID_30_);}
	.st42{fill:url(#SVGID_31_);}
	.st43{fill:url(#SVGID_32_);}
	.st44{fill:url(#SVGID_33_);}
	.st45{fill:url(#SVGID_34_);}
	.st46{fill:url(#SVGID_35_);}
	.st47{fill:url(#SVGID_36_);}
	.st48{fill:url(#SVGID_37_);}
	.st49{fill:url(#SVGID_38_);}
	.st50{fill:url(#SVGID_39_);}
	.st51{fill:url(#SVGID_40_);}
	.st52{fill:url(#SVGID_41_);}
	.st53{fill:url(#SVGID_42_);}
	.st54{fill:url(#SVGID_43_);}
	.st55{fill:url(#SVGID_44_);}
	.st56{fill:url(#SVGID_45_);}
	.st57{fill:url(#SVGID_46_);}
	.st58{fill:url(#SVGID_47_);}
	.st59{fill:url(#SVGID_48_);}
	.st60{fill:url(#SVGID_49_);}
	.st61{fill:url(#SVGID_50_);}
	.st62{fill:url(#SVGID_51_);}
	.st63{fill:url(#SVGID_52_);}
	.st64{fill:url(#SVGID_53_);}
	.st65{fill:url(#SVGID_54_);}
	.st66{fill:url(#SVGID_55_);}
	.st67{fill:url(#SVGID_56_);}
	.st68{fill:url(#SVGID_57_);}
	.st69{fill:#92BCFF;}
	.st70{fill:#BDCCD4;}
	.st71{opacity:0.6;fill:#FFFFFF;}
	.st72{opacity:0.78;fill:#FFFFFF;}
	.st73{fill:#94B8F2;}
	.st74{fill:#ADC0FF;}
	.st75{fill:#92CCD4;}
	.st76{fill:#89B9CE;}
	.st77{fill:#B0B0B0;}
</style>
<g id="Background">
</g>
<g id="Illustration">
	<g class="st0">
		<path class="st1" d="M769.69,1515.71c0,0-20.04-230.41-323.66-310.87c-202.6-53.69-259.76-114.79-275.34-140.11
			c-1.82-2.95-6.35-1.72-6.38,1.74c-0.46,42.8,13.06,177.51,187.62,283.6C562.3,1477.94,686.92,1425.09,769.69,1515.71z"/>
	</g>
	<g class="st0">
		<path class="st1" d="M1618.33,1471.06c0,0-506.55-524.31,272.34-1225.77c0,0,46.33,301.41-142.2,602.36
			C1559.95,1148.6,1539.18,1328.27,1618.33,1471.06z"/>
		<path class="st2" d="M1761.42,532.99c-26.12,29.23-49.35,61.06-70.53,94.01c-10.63,16.46-20.77,33.24-30.27,50.36
			c-9.58,17.08-18.61,34.45-27.06,52.1c-33.9,70.53-58.85,145.33-73.03,222.19c-3.58,19.2-6.53,38.53-8.64,57.96
			c-2.15,19.42-3.76,38.9-4.54,58.43c-0.55,9.76-0.56,19.54-0.8,29.31c0.1,9.77-0.04,19.55,0.38,29.32
			c0.46,19.55,1.78,39.07,3.57,58.55c7.51,77.94,25.71,154.78,51.93,228.88c0.21,0.6-0.1,1.25-0.7,1.46
			c-0.58,0.2-1.21-0.09-1.44-0.65c-14.9-36.49-27.17-74.06-37.32-112.23c-10.08-38.19-17.23-77.18-21.8-116.48
			c-9.02-78.63-6.36-158.7,7.97-236.64c3.52-19.5,7.78-38.86,12.84-58.02c5.01-19.16,10.67-38.16,16.96-56.94
			c6.27-18.79,13.41-37.27,21.02-55.54c7.65-18.26,15.85-36.28,24.77-53.94c8.89-17.67,18.35-35.05,28.37-52.09
			c10.06-17.02,20.75-33.66,31.91-49.96c11.23-16.25,23.06-32.09,35.44-47.46c12.39-15.37,25.27-30.33,39.36-44.24
			c0.45-0.44,1.18-0.44,1.62,0.01c0.43,0.43,0.44,1.12,0.04,1.57L1761.42,532.99z"/>
	</g>
	<g class="st3">
		<path class="st1" d="M649.16,358.31c-9.74-15.45-33.69-6.74-31.26,11.36c12.52,93.31,27.4,256.19-1.94,362.64
			c-43.15,156.52-120.72,616.93,316.77,733.48C932.73,1465.8,891.06,742.03,649.16,358.31z"/>
		<path class="st2" d="M687.99,550.79c4.92,9.08,8.6,18.59,11.97,28.25c3.36,9.66,6.07,19.51,8.62,29.42
			c4.84,19.87,8.11,40.1,10.41,60.42l1.45,15.28c0.47,5.1,0.63,10.2,0.96,15.31c0.73,10.22,0.84,20.44,0.99,30.67
			c0.01,2.56,0.11,5.12,0.06,7.67l-0.18,7.66l-0.37,15.34c-0.03,5.12-0.53,10.21-0.79,15.32l-0.94,15.31
			c-1.45,20.48-4.34,40.74-7.18,60.84l-8.82,60.03c-5.71,39.85-9.72,79.73-9.79,119.55c-0.18,39.82,4.55,79.44,13.95,117.97
			c2.69,9.54,4.98,19.21,8.31,28.56c1.59,4.7,3.01,9.46,4.75,14.11l5.4,13.88c0.92,2.31,1.76,4.65,2.73,6.93l3.02,6.81l6.05,13.64
			c2.19,4.47,4.49,8.88,6.74,13.33c2.32,4.41,4.37,8.96,6.97,13.22l7.47,12.96c1.26,2.15,2.46,4.34,3.77,6.47l4.07,6.29l8.09,12.63
			l2.02,3.16l2.17,3.06l4.35,6.12l8.71,12.25c2.93,4.06,6.15,7.91,9.22,11.88l9.31,11.83c3.16,3.9,6.5,7.65,9.74,11.49
			c26.06,30.63,54.81,59.05,84.8,86.26c0.47,0.42,0.51,1.15,0.09,1.62c-0.4,0.45-1.08,0.5-1.55,0.15
			c-32.3-24.56-62.93-51.52-91.01-81.14c-3.49-3.72-7.12-7.32-10.51-11.14l-9.99-11.62c-3.29-3.91-6.74-7.69-9.91-11.7l-9.43-12.12
			l-4.72-6.07l-2.35-3.04l-2.21-3.15l-8.81-12.61l-4.38-6.33c-1.41-2.14-2.72-4.35-4.08-6.53l-8.11-13.11
			c-21.33-35.19-37.35-73.66-48.37-113.49c-10.79-39.93-15.66-81.36-15.79-122.53c-0.43-41.23,4.39-82.12,10.36-122.37
			c6.04-40.27,14.16-79.92,18.42-119.63l1.46-14.97c0.43-4.99,1.11-9.98,1.32-14.98l0.91-15.01l0.46-7.51
			c0.14-2.5,0.14-5.01,0.22-7.51c0.24-10.02,0.73-20.05,0.49-30.07c-0.07-5.01,0.02-10.03-0.19-15.04l-0.66-15.02
			c-1.13-20.01-3-40.03-6.42-59.82c-1.73-9.88-3.64-19.76-6.19-29.48c-2.42-9.73-5.31-19.45-9.09-28.66l-0.03-0.08
			c-0.24-0.58,0.04-1.25,0.62-1.49C687.1,550.05,687.72,550.28,687.99,550.79z"/>
	</g>
	<path class="st4" d="M817.76,900.65c0-9.73-7.88-17.61-17.61-17.61h-139.1c-9.73,0-17.61,7.88-17.61,17.61v597.83
		c0,9.73,7.88,17.61,17.61,17.61h139.1c9.73,0,17.61-7.88,17.61-17.61V900.65z"/>
	<path class="st4" d="M1244.95,807.35h-138.76c-9.73,0-17.78,9.36-17.78,20.25v667.55c0,10.9,8.05,20.94,17.78,20.94h138.76
		c9.73,0,20.07-10.04,20.07-20.94V827.6C1265.02,816.7,1254.68,807.35,1244.95,807.35z"/>
	<path class="st4" d="M1035.66,703.39c0-9.73-7.88-17.61-17.61-17.61h-139.1c-9.73,0-17.61,7.88-17.61,17.61v795.09
		c0,9.73,7.88,17.61,17.61,17.61h139.1c9.73,0,17.61-7.88,17.61-17.61V703.39z"/>
	<path class="st4" d="M1790.27,421.27c0-9.73-7.88-17.61-17.61-17.61h-139.1c-9.73,0-17.61,7.88-17.61,17.61v1077.21
		c0,9.73,7.88,17.61,17.61,17.61h139.1c9.73,0,17.61-7.88,17.61-17.61V421.27z"/>
	<path class="st4" d="M1531.09,574.95c0-9.73-7.88-17.61-17.61-17.61h-139.1c-9.73,0-17.61,7.88-17.61,17.61v923.53
		c0,9.73,7.88,17.61,17.61,17.61h139.1c9.73,0,17.61-7.88,17.61-17.61V574.95z"/>
	<g class="st5">
		<path class="st6" d="M800.16,1505.49c0,0-196.48,68.03-343.27-146.93c-137.89-201.92-55.04-454.39,5.8-598.63
			c3.17-7.51,14.21-6.12,15.42,1.95c18.25,121.44,103.15,596.31,332.55,743.24L800.16,1505.49z"/>
		<path class="st7" d="M779.33,1510.33c-25.04-3.51-49.12-11.34-72.52-20.73c-23.34-9.6-45.66-21.74-66.67-35.87
			c-20.97-14.19-40.48-30.6-58.22-48.75c-17.66-18.24-33.48-38.23-47.5-59.43c-13.61-21.46-25.23-44.09-35.28-67.4l-6.83-17.75
			l-3.33-8.91l-2.81-9.07l-5.62-18.15c-1.61-6.12-3.06-12.28-4.53-18.43c-11.61-49.25-15.92-99.95-13.51-150.08
			c0.03-0.63,0.57-1.12,1.2-1.09c0.57,0.03,1.03,0.47,1.09,1.03l0,0.03c1.31,12.47,2.48,24.89,3.5,37.3l2.43,18.53
			c0.81,6.17,1.4,12.36,2.4,18.49c1.1,6.12,2.11,12.24,3.12,18.36c1.05,6.11,1.89,12.26,3.38,18.29
			c2.76,12.08,4.82,24.31,8.37,36.17l4.77,17.92l5.66,17.64l2.82,8.82l3.32,8.63l6.56,17.3c9.64,22.7,20.84,44.69,33.87,65.6
			c13.27,20.74,28.3,40.36,45.16,58.32c16.75,18.06,35.35,34.44,55.38,48.9c19.99,14.53,41.46,27.03,63.84,37.72
			c22.48,10.39,46,19.1,70.26,24.34l0.07,0.02c0.62,0.13,1.01,0.74,0.88,1.36C780.48,1510.03,779.92,1510.41,779.33,1510.33z"/>
	</g>
	<g>
		<path class="st8" d="M1480.91,1395.45l320.78-614.54h-65.72c-12.12,0-18.78-14.09-11.1-23.46l341.88-416.69
			c14.82-18.06,44.09-6.61,42.71,16.71l-24.03,407.47c-1.38,23.33-22.06,40.71-45.27,38.05l-45.82-5.24l-318.27,689.27
			c-8.29,17.94-26.25,29.43-46.01,29.43h-110.31L1480.91,1395.45z"/>
		<path class="st9" d="M1215.7,964.45l226.46,503.06c13.41,29.8,43.05,48.96,75.73,48.96h116.75c15.49,0,29.76-8.4,37.28-21.95
			l4.15-7.48l0,0c-12.54,0-24.03-7.03-29.73-18.21l-301.73-591.2L1215.7,964.45z"/>
		<path class="st8" d="M1375.08,937.34L1375.08,937.34c-22.71-17.93-55.89-12.66-71.92,11.43L970.2,1449.01
			c-26.67,40.07-71.61,64.14-119.74,64.14h-46.85l-38.13-109.84c0,0,309.54-474.62,389.32-546.42c0,0,79.45-71.61,157.79-17.47
			c20.7,14.3,36.41,34.72,46.01,57.97L1375.08,937.34z"/>
		<path class="st10" d="M403.34,1107.9c0,0,55.74-69.67,163.74-80.5c0,0,51.3,17.48,153.49,200.6
			c102.19,183.12,170.03,266.63,249.63,221.02l-6.59,10.94c-21.72,36.06-60.74,58.11-102.83,58.11h-44.02
			c-48.47,0-93.97-23.3-122.28-62.65C614.93,1344.84,452.2,1125.07,403.34,1107.9z"/>
		<path class="st6" d="M2070.89,486.58c-0.13,0-0.26-0.01-0.39-0.02c-1.89-0.21-3.24-1.92-3.03-3.81l2.25-19.9
			c0.21-1.89,1.92-3.27,3.81-3.03c1.89,0.21,3.24,1.92,3.03,3.81l-2.25,19.9C2074.11,485.29,2072.62,486.58,2070.89,486.58z"/>
		<path class="st6" d="M1785.5,737.73c-0.73,0-1.47-0.23-2.1-0.71c-1.51-1.16-1.79-3.32-0.63-4.82l282.31-366.82
			c3.35-4.36,9.03-5.9,14.13-3.84c5.1,2.06,8.11,7.12,7.49,12.58l-4.98,43.97c-0.21,1.89-1.92,3.25-3.81,3.03
			c-1.89-0.21-3.24-1.92-3.03-3.81l4.98-43.97c0.33-2.91-1.45-4.71-3.23-5.43c-1.78-0.72-4.31-0.66-6.1,1.66l-282.31,366.82
			C1787.55,737.27,1786.53,737.73,1785.5,737.73z"/>
		<path class="st6" d="M1145.04,1122.29c-0.66,0-1.33-0.19-1.92-0.59c-1.58-1.06-1.99-3.2-0.93-4.78l146-216.42
			c5.29-7.84,14.07-12.11,23.52-11.38c9.44,0.71,17.49,6.25,21.53,14.8c0.81,1.72,0.08,3.77-1.64,4.58
			c-1.72,0.82-3.77,0.08-4.58-1.64c-2.98-6.29-8.9-10.36-15.84-10.88c-6.95-0.53-13.4,2.6-17.29,8.37l-146,216.42
			C1147.23,1121.75,1146.15,1122.29,1145.04,1122.29z"/>
		<path class="st6" d="M1107.1,1178.53c-0.66,0-1.33-0.19-1.92-0.59c-1.58-1.06-1.99-3.2-0.93-4.78l9.36-13.88
			c1.07-1.58,3.2-1.99,4.78-0.93c1.58,1.06,1.99,3.2,0.93,4.78l-9.36,13.88C1109.29,1177.99,1108.21,1178.53,1107.1,1178.53z"/>
	</g>
	<g class="st0">
		<path class="st6" d="M2262.88,727.41c-127.41,56.49-465.85,251.96-611.97,778.86c0,0,197.11,3.3,345-312.81
			C2122.38,923.12,2195.11,813.9,2272.56,742C2279.9,735.19,2272.03,723.35,2262.88,727.41z"/>
		<path class="st2" d="M1675.37,1476.77c5.57-15.82,11.72-31.38,18.09-46.87c6.39-15.48,13.05-30.84,19.98-46.09
			c6.9-15.26,14-30.43,21.43-45.44c3.65-7.54,7.39-15.04,11.18-22.5c3.76-7.49,7.64-14.91,11.56-22.31
			c15.54-29.69,32.05-58.87,49.22-87.66c17.27-28.73,35.46-56.91,54.25-84.69c37.76-55.42,78.92-108.61,124.08-158.23l17.16-18.4
			c5.75-6.1,11.76-11.96,17.63-17.95l8.85-8.94l9.12-8.67c6.14-5.71,12.16-11.54,18.39-17.15c24.93-22.42,50.93-43.64,78.08-63.23
			c0.51-0.37,1.23-0.26,1.6,0.26c0.36,0.5,0.26,1.18-0.21,1.56l-0.02,0.02c-25.94,21.03-51.15,42.85-75.03,66.1
			c-23.63,23.49-46.8,47.42-68.55,72.65c-43.77,50.2-83.83,103.55-121.01,158.8c-18.59,27.63-36.41,55.78-53.66,84.28
			c-17.22,28.52-33.76,57.45-49.9,86.62c-32.13,58.4-62.4,117.91-90.1,178.68l-0.01,0.02c-0.26,0.58-0.94,0.83-1.52,0.57
			C1675.43,1477.94,1675.17,1477.32,1675.37,1476.77z"/>
	</g>
	<g class="st0">
		<path class="st1" d="M1650.91,1511.11c0,0,56.26-220.6,364.01-250.27c205.36-19.8,270.64-70.02,289.82-92.12
			c2.23-2.57,6.44-0.66,5.92,2.71c-6.39,41.64-41.03,170.33-227.52,245.5C1858.38,1507.54,1745.78,1436.31,1650.91,1511.11z"/>
		<path class="st2" d="M1667.11,1468.5c18.96-18.65,40.01-34.96,61.88-50.1c10.97-7.52,22.16-14.76,33.7-21.43
			c11.49-6.74,23.21-13.15,35.21-19.03c11.97-5.94,24.25-11.25,36.63-16.35c12.45-4.93,25.11-9.39,37.97-13.22
			c3.22-0.95,6.41-1.97,9.65-2.86l9.74-2.57c6.46-1.85,13.09-3.05,19.65-4.51c6.61-1.26,13.24-2.42,19.89-3.47l10.02-1.33l5.01-0.66
			l5.03-0.46l10.07-0.89c3.35-0.35,6.73-0.34,10.1-0.53l10.11-0.4l10.12,0.1c6.75-0.05,13.49,0.54,20.22,0.95l9.88,0.69l9.72,0.72
			c6.48,0.33,12.97,0.62,19.45,0.77c6.48-0.01,12.97,0.2,19.44-0.04c12.96-0.17,25.87-1.2,38.69-2.87
			c25.63-3.24,50.86-9.85,74.19-20.89c5.76-2.87,11.51-5.84,16.94-9.32c5.48-3.41,10.79-7.1,15.8-11.18
			c5.04-4.05,9.77-8.49,14.18-13.24c4.37-4.74,8.53-9.9,11.64-15.45l0.05-0.08c0.31-0.55,1.01-0.75,1.56-0.44
			c0.52,0.29,0.72,0.93,0.49,1.46c-2.75,6.28-6.45,11.84-10.5,17.22c-4.06,5.36-8.66,10.29-13.53,14.94
			c-9.7,9.37-20.9,17.09-32.6,23.8c-11.77,6.63-24.27,11.89-37.06,16.15c-12.8,4.27-25.92,7.54-39.2,9.72
			c-13.27,2.24-26.65,3.81-40.05,4.49c-13.41,0.92-26.83,0.7-40.21,0.32l-10.03-0.52l-9.87-0.46c-6.44-0.23-12.86-0.67-19.31-0.47
			l-9.66,0.05l-9.66,0.45c-3.22,0.2-6.44,0.22-9.65,0.58l-9.63,0.92c-25.68,2.6-51.03,8.18-75.92,15.32
			c-24.86,7.28-49.26,16.38-73.02,27.05c-5.95,2.64-11.85,5.42-17.76,8.18c-5.86,2.87-11.74,5.69-17.51,8.74
			c-11.57,6.05-23.12,12.2-34.39,18.85c-11.26,6.66-22.52,13.4-33.48,20.63c-11.02,7.13-21.9,14.56-32.45,22.39l-0.03,0.02
			c-0.51,0.38-1.23,0.27-1.61-0.24C1666.65,1469.54,1666.71,1468.9,1667.11,1468.5z"/>
	</g>
	<g>
		<g>
			<g>
				<linearGradient id="SVGID_1_" gradientUnits="userSpaceOnUse" x1="601.4009" y1="1631.4509" x2="602.4451" y2="1742.1333">
					<stop  offset="0" style="stop-color:#09005D"/>
					<stop  offset="1" style="stop-color:#1A0F91"/>
				</linearGradient>
				<path class="st11" d="M567.82,1500.92c0,0-1.3,7.21-1.81,15.77c-0.22,3.65,2.48,6.82,6.12,7.17c12.66,1.23,41.48,3.5,59.88,0.84
					c2.58-0.37,3.6-3.54,1.7-5.31c-7.59-7.07-25.91-20.82-56.07-23.83L567.82,1500.92z"/>
				<linearGradient id="SVGID_2_" gradientUnits="userSpaceOnUse" x1="574.7211" y1="1507.8467" x2="568.9781" y2="1462.9476">
					<stop  offset="0" style="stop-color:#FF928E"/>
					<stop  offset="1" style="stop-color:#FEB3B1"/>
				</linearGradient>
				<path class="st12" d="M561.53,1484.67l6.4,15.69c0.88,2.15,3.06,3.49,5.37,3.25c1.57-0.16,3.42-0.46,5.23-1.01
					c3.61-1.1,5.65-4.93,4.57-8.54l-4.83-16.16L561.53,1484.67z"/>
				<linearGradient id="SVGID_3_" gradientUnits="userSpaceOnUse" x1="451.8621" y1="1632.8616" x2="452.9063" y2="1743.5438">
					<stop  offset="0" style="stop-color:#09005D"/>
					<stop  offset="1" style="stop-color:#1A0F91"/>
				</linearGradient>
				<path class="st13" d="M452.09,1513.41c0,0,12.82,10.72,17.81,24.48c1.37,3.78-1.53,7.77-5.56,7.77h-26.38
					c-3.86,0-6.82-3.47-6.15-7.28C433.5,1528.89,438.34,1513.45,452.09,1513.41z"/>
				<linearGradient id="SVGID_4_" gradientUnits="userSpaceOnUse" x1="449.2013" y1="1523.235" x2="443.6049" y2="1479.4821">
					<stop  offset="0" style="stop-color:#FF928E"/>
					<stop  offset="1" style="stop-color:#FEB3B1"/>
				</linearGradient>
				<path class="st14" d="M436.21,1499.45c0,0,2.59,11.46,4.58,19.03c0.36,1.37,1.83,2.13,3.17,1.65c3.99-1.43,7.24-2.06,9.6-1.74
					c1.09,0.15,2.04-0.76,2.06-1.86l0.25-19.03L436.21,1499.45z"/>
				<linearGradient id="SVGID_5_" gradientUnits="userSpaceOnUse" x1="410.0922" y1="1356.9806" x2="582.3471" y2="1356.9806">
					<stop  offset="0" style="stop-color:#4042E2"/>
					<stop  offset="1" style="stop-color:#4F52FF"/>
				</linearGradient>
				<path class="st15" d="M504.38,1241.58l77.97,237.86c0,0-14.95,9.79-22.08,9.39l-92.61-191.16c0,0-16.21,117.78-8.35,202.35
					l-26.53,2.02c0,0-43.13-216.09-10.46-290.11L504.38,1241.58z"/>
				<linearGradient id="SVGID_6_" gradientUnits="userSpaceOnUse" x1="445.8217" y1="1330.5525" x2="452.0867" y2="1318.0225">
					<stop  offset="0" style="stop-color:#4042E2"/>
					<stop  offset="1" style="stop-color:#4F52FF"/>
				</linearGradient>
				<path class="st16" d="M468.16,1295.61c-0.03,0-0.06,0-0.09-0.01c-0.41-0.05-0.71-0.43-0.65-0.84l3.03-24.02
					c0.05-0.41,0.43-0.7,0.84-0.65c0.41,0.05,0.71,0.43,0.65,0.84l-3.03,24.02C468.86,1295.33,468.54,1295.61,468.16,1295.61z"/>
			</g>
			<linearGradient id="SVGID_7_" gradientUnits="userSpaceOnUse" x1="548.9183" y1="1067.3575" x2="441.369" y2="1386.8727">
				<stop  offset="0" style="stop-color:#09005D"/>
				<stop  offset="1" style="stop-color:#1A0F91"/>
			</linearGradient>
			<path class="st17" d="M519,1032.28c0,0-63.17,5.61-54.23,50.62c0,0-34.92,65.71-51.24,143.12c-0.53,2.52,1.16,4.98,3.69,5.41
				l105.2,18.01c2.9,0.5,5.7-1.31,6.44-4.16l25.13-97.14l9.79,45.16l31.12-8.11l-26.2-132.71
				C568.7,1052.47,565.05,1033.11,519,1032.28z"/>
			<linearGradient id="SVGID_8_" gradientUnits="userSpaceOnUse" x1="553.7351" y1="1122.8712" x2="564.071" y2="1122.8712">
				<stop  offset="0" style="stop-color:#4042E2"/>
				<stop  offset="1" style="stop-color:#4F52FF"/>
			</linearGradient>
			<path class="st18" d="M554.52,1143.79c-0.05,0-0.11-0.01-0.17-0.02c-0.42-0.09-0.69-0.51-0.6-0.93l8.77-40.26
				c0.09-0.42,0.5-0.69,0.93-0.6c0.42,0.09,0.69,0.51,0.6,0.93l-8.77,40.26C555.2,1143.54,554.88,1143.79,554.52,1143.79z"/>
			<linearGradient id="SVGID_9_" gradientUnits="userSpaceOnUse" x1="491.4987" y1="1235.8704" x2="569.9342" y2="1235.8704">
				<stop  offset="0" style="stop-color:#FF928E"/>
				<stop  offset="1" style="stop-color:#FEB3B1"/>
			</linearGradient>
			<path class="st19" d="M548.17,1263.6c-3.31-1.82-7.19-2.33-10.86-1.41l-7.32,1.82c-1.56,0.39-3.1-0.68-3.28-2.28l-7.57-67.41
				c-9.47,4.5-23.13,3.96-27.64,3.63l17.43,79.48h61L548.17,1263.6z"/>
			<linearGradient id="SVGID_10_" gradientUnits="userSpaceOnUse" x1="563.7789" y1="1137.5469" x2="710.2539" y2="1137.5469">
				<stop  offset="0" style="stop-color:#FF928E"/>
				<stop  offset="1" style="stop-color:#FEB3B1"/>
			</linearGradient>
			<path class="st20" d="M710.25,1117.37l-1.84-6.13c-1.06-3.53-3.67-6.38-7.08-7.75l-33.35-13.41c0,0-0.5-4.28,7.05-7.18
				c7.55-2.91,5.78-11.36,5.78-11.36s-10.31,4.7-25.41,12.17c-8.64,4.27-13.48,11.8-16.05,17.47l-75.57,92.12l8.87,6.1
				c11.67,8.02,27.71,4.08,34.34-8.43l40.94-78.5C668.48,1118.64,689.28,1119.82,710.25,1117.37z"/>
			<g>
				<linearGradient id="SVGID_11_" gradientUnits="userSpaceOnUse" x1="546.4444" y1="1005.6461" x2="530.0535" y2="1072.0724">
					<stop  offset="0" style="stop-color:#FF928E"/>
					<stop  offset="1" style="stop-color:#FEB3B1"/>
				</linearGradient>
				<path class="st21" d="M539.46,989.3l-19.43,54.38c0,0,17.2,13.45,29.76,8.9l9.79-31.17
					C559.58,1021.41,552.1,983.32,539.46,989.3z"/>
				<g>
					<linearGradient id="SVGID_12_" gradientUnits="userSpaceOnUse" x1="607.895" y1="990.3757" x2="546.6451" y2="991.2383">
						<stop  offset="0" style="stop-color:#FF928E"/>
						<stop  offset="1" style="stop-color:#FEB3B1"/>
					</linearGradient>
					<path class="st22" d="M597.45,969.77c0,0.84-18.72,52.98-18.72,52.98l-29.55-11.32l10.4-52.06
						C559.58,959.38,597.45,955.75,597.45,969.77z"/>
					<linearGradient id="SVGID_13_" gradientUnits="userSpaceOnUse" x1="536.4365" y1="990.4229" x2="612.3542" y2="990.4229">
						<stop  offset="0" style="stop-color:#09005D"/>
						<stop  offset="1" style="stop-color:#1A0F91"/>
					</linearGradient>
					<path class="st23" d="M564.76,972.06l-7.62,26.97c-0.1,0.35-0.15,0.69-0.15,1.05c0,2.2,0.54,9.77,8.25,8.74
						c7-0.93,13.4-1.68,17.47,0.23c1.83,0.86,2.7,2.96,2.02,4.86c-1.7,4.74-5.73,15.34-10.64,24.02c-1,1.76-3.18,2.45-5.02,1.61
						c-5.55-2.52-17.1-8.18-25.33-14.9c-1.12-0.91-1.65-2.34-1.39-3.76c1.29-6.9,5.15-27.89,5.32-33.9
						c0.16-5.65-6.17-9.95-8.96-11.57c-0.91-0.53-1.56-1.41-1.81-2.43c-0.88-3.63-1.62-11.86,8.87-13.67
						c2.2-0.38,3.63-2.48,3.18-4.66c-0.89-4.35-0.6-10.74,7.65-13.1c8.39-2.39,13.67,2.65,16.35,6.53c1.09,1.57,3.12,2.07,4.86,1.3
						c0.99-0.44,2.19-0.46,3.47,0.62c1.73,1.46,4.37,1.02,5.64-0.86c2.45-3.6,6.89-7.19,14.41-4.76
						c13.35,4.32,12.71,19.71,7.82,28.08c-4.89,8.37-19.1,2.86-25.82-2.68c-5.11-4.22-12.9-1.69-16.34-0.24
						C565.9,969.99,565.09,970.92,564.76,972.06z"/>
					<linearGradient id="SVGID_14_" gradientUnits="userSpaceOnUse" x1="536.7252" y1="1003.2478" x2="520.3344" y2="1069.6738">
						<stop  offset="0" style="stop-color:#FF928E"/>
						<stop  offset="1" style="stop-color:#FEB3B1"/>
					</linearGradient>
					<path class="st24" d="M545,996.84c0,0,7.9-14.94,2.68-19.64c-5.22-4.69-14.07-3.92-13.84,7.76
						C534.13,999.5,545,996.84,545,996.84z"/>
				</g>
			</g>
			<linearGradient id="SVGID_15_" gradientUnits="userSpaceOnUse" x1="466.328" y1="1144.6508" x2="523.7343" y2="1144.6508">
				<stop  offset="0" style="stop-color:#4042E2"/>
				<stop  offset="1" style="stop-color:#4F52FF"/>
			</linearGradient>
			<path class="st25" d="M497.63,1198.96c-4.31,0-7.39-0.33-7.72-0.36l-0.56-0.06l-23-107.24c-0.09-0.42,0.18-0.84,0.6-0.93
				c0.43-0.09,0.84,0.18,0.93,0.6l22.76,106.13c3.42,0.3,21.7,1.51,31.35-5.32l-19.93-93.17l4.16-7.84c0.2-0.38,0.68-0.53,1.06-0.33
				c0.38,0.2,0.53,0.68,0.32,1.06l-3.89,7.33l20.02,93.6l-0.4,0.3C516.36,1197.97,505.13,1198.96,497.63,1198.96z"/>
		</g>
		<g>
			<path class="st26" d="M527.39,1554.85c-0.6,0-1.2-0.13-1.79-0.4c-2.3-1.08-3.36-3.99-2.37-6.5l95-241.05
				c0.99-2.51,3.65-3.67,5.95-2.59c2.3,1.08,3.36,3.99,2.37,6.5l-95,241.05C530.82,1553.73,529.15,1554.85,527.39,1554.85z"/>
			<path class="st26" d="M634.42,1554.85c-1.76,0-3.43-1.12-4.16-2.99l-95-241.05c-0.99-2.51,0.07-5.42,2.37-6.5
				c2.3-1.08,4.96,0.08,5.95,2.59l95,241.05c0.99,2.51-0.07,5.42-2.37,6.5C635.62,1554.72,635.01,1554.85,634.42,1554.85z"/>
			<path class="st26" d="M931.77,1554.85c-0.6,0-1.2-0.13-1.79-0.4c-2.3-1.08-3.36-3.99-2.37-6.5l95-241.05
				c0.99-2.51,3.65-3.67,5.95-2.59c2.3,1.08,3.36,3.99,2.37,6.5l-95,241.05C935.2,1553.73,933.53,1554.85,931.77,1554.85z"/>
			<path class="st26" d="M1038.79,1554.85c-1.76,0-3.43-1.12-4.16-2.99l-95-241.05c-0.99-2.51,0.07-5.42,2.37-6.5
				c2.3-1.08,4.96,0.08,5.95,2.59l95,241.05c0.99,2.51-0.07,5.42-2.37,6.5C1040,1554.72,1039.39,1554.85,1038.79,1554.85z"/>
		</g>
		<g>
			<linearGradient id="SVGID_16_" gradientUnits="userSpaceOnUse" x1="864.9111" y1="1508.3043" x2="889.1881" y2="1355.5947">
				<stop  offset="0" style="stop-color:#09005D"/>
				<stop  offset="1" style="stop-color:#1A0F91"/>
			</linearGradient>
			<rect x="868.06" y="1392.41" class="st27" width="11.23" height="121.47"/>
			<linearGradient id="SVGID_17_" gradientUnits="userSpaceOnUse" x1="874.6086" y1="1509.8458" x2="898.8857" y2="1357.1355">
				<stop  offset="0" style="stop-color:#09005D"/>
				<stop  offset="1" style="stop-color:#1A0F91"/>
			</linearGradient>
			<path class="st28" d="M922.87,1516.23h-98.38v-0.53c0-3.75,3.04-6.78,6.78-6.78h84.28
				C919.59,1508.91,922.87,1512.19,922.87,1516.23L922.87,1516.23z"/>
			<linearGradient id="SVGID_18_" gradientUnits="userSpaceOnUse" x1="855.889" y1="1506.8702" x2="880.166" y2="1354.1603">
				<stop  offset="0" style="stop-color:#09005D"/>
				<stop  offset="1" style="stop-color:#1A0F91"/>
			</linearGradient>
			<path class="st29" d="M937.47,1388.2c0,6.64-5.44,12.08-12.08,12.08h-99.53c-6.64,0-12.08-5.44-12.08-12.08v-10.92
				c0-6.64,5.44-12.08,12.08-12.08h99.53c6.64,0,12.08,5.44,12.08,12.08V1388.2z"/>
		</g>
		<g>
			<linearGradient id="SVGID_19_" gradientUnits="userSpaceOnUse" x1="785.7755" y1="1404.7979" x2="771.9727" y2="1544.5516">
				<stop  offset="0" style="stop-color:#FF928E"/>
				<stop  offset="0.4766" style="stop-color:#FFA29F"/>
				<stop  offset="1" style="stop-color:#FEB3B1"/>
			</linearGradient>
			<path class="st30" d="M790.76,1311.42c0,0-16.69,2.59-35.46,15.13c-2.95,1.97-4.57,5.42-4.13,8.94
				c2.25,17.8,11.49,75.41,41.95,131.68c1.61,2.97,2.07,6.42,1.36,9.72l-5.29,24.63l-9.82,9.2h25.28l16.83-45.56l-7.2-2.28
				c-5.58-1.77-9.41-6.9-9.51-12.75l-0.84-48.87c0.72-21.77-13.35-36.79-13.35-36.79l40.38-1.96L790.76,1311.42z"/>
			<linearGradient id="SVGID_20_" gradientUnits="userSpaceOnUse" x1="799.9664" y1="1463.114" x2="788.2195" y2="1643.2329">
				<stop  offset="0" style="stop-color:#09005D"/>
				<stop  offset="1" style="stop-color:#1A0F91"/>
			</linearGradient>
			<path class="st31" d="M769.5,1515.17c-2.3,3.01,24.78,6.99,38.47,0.4c0,0,18.97-33,18.97-50c0,0-1.51-3.46-12.64-2.68
				c0,0-6.37,39.08-13.09,43.45c-6.73,4.38-18.82,0.44-18.82,0.44S772.9,1510.72,769.5,1515.17z"/>
			<linearGradient id="SVGID_21_" gradientUnits="userSpaceOnUse" x1="657.3249" y1="1416.5293" x2="825.8566" y2="1416.5293">
				<stop  offset="0" style="stop-color:#FF928E"/>
				<stop  offset="1" style="stop-color:#FEB3B1"/>
			</linearGradient>
			<path class="st32" d="M825.86,1365.2c-0.21-0.37-43.47-5.2-43.47-5.2s1.42,13.15-3.01,31.26c-4.42,18.11-67.94,96.55-67.94,96.55
				l6.66,21.11c-20.59,7.17-40.84,8.32-60.77,3.66l41.27-24.77c0,0,38.62-131.63,62.28-155.11l43.36-15L825.86,1365.2z"/>
			<linearGradient id="SVGID_22_" gradientUnits="userSpaceOnUse" x1="761.3148" y1="1328.6123" x2="950.1185" y2="1328.6123">
				<stop  offset="0" style="stop-color:#E1473D"/>
				<stop  offset="1" style="stop-color:#E9605A"/>
			</linearGradient>
			<path class="st33" d="M922.87,1288.61c0,0,24.92,37.07,26.97,53.98c2.05,16.91-6.83,23.78-32.98,24.91
				c-26.15,1.13-95.96,1.11-95.96,1.11l-59.58-50.92c0,0,43.42-15.49,54.71-19.88C827.31,1293.44,922.87,1288.61,922.87,1288.61z"/>
			<linearGradient id="SVGID_23_" gradientUnits="userSpaceOnUse" x1="686.6102" y1="1455.7208" x2="674.8632" y2="1635.8412">
				<stop  offset="0" style="stop-color:#09005D"/>
				<stop  offset="1" style="stop-color:#1A0F91"/>
			</linearGradient>
			<path class="st34" d="M715.58,1501.8c0,0,7.17,6.94,2.33,14.67c0,0-56.8,10.07-72.22,5.5c0,0,3.2-7.31,20.57-15.63l-1.28,0.98
				c-1.62,1.24-0.67,3.84,1.37,3.72C677.79,1510.4,701.47,1508.3,715.58,1501.8z"/>
		</g>
		<g>
			<linearGradient id="SVGID_24_" gradientUnits="userSpaceOnUse" x1="952.2816" y1="1095.7833" x2="887.7438" y2="1158.9181">
				<stop  offset="0" style="stop-color:#09005D"/>
				<stop  offset="1" style="stop-color:#1A0F91"/>
			</linearGradient>
			<path class="st35" d="M872.5,1080.36c3.77,1.17,17.34,6.05,15.59,14.78c-0.23,1.16,0.86,2.14,2,1.83
				c5.85-1.57,18.77-3.56,26.78,6.48c7.07,8.86,1.79,17.22-2.52,21.81c-1.04,1.11-0.17,2.91,1.34,2.72
				c10.75-1.36,34.12-1.68,37.94,20.21c3.57,20.41-10.64,26.17-19.07,27.79c-1.43,0.27-1.76,2.15-0.53,2.93
				c4.2,2.67,9.07,8.18,7.11,19.05c-3.08,17.05-36.5,15.65-40.41,15.43c-0.25-0.01-0.48-0.09-0.7-0.21l-53.53-30.53
				c-0.42-0.24-0.71-0.65-0.79-1.12l-10.81-62.41c-0.09-0.5,0.07-1.02,0.43-1.39l35.54-36.94
				C871.29,1080.35,871.92,1080.18,872.5,1080.36z"/>
			<path class="st26" d="M855.47,1283.7c0,0-29.02-27.64-43.31-45.94c-7.72-9.89-10.15-22.92-6.58-34.95
				c6.52-21.97,18.11-44.73,19.17-48.28c1.62-5.43,34.16-5.2,34.16-5.2s64.04,41.56,89.2,111.96l-28.26,8.8
				c0,0-16.72-28.05-33.24-45.88c0,0,28.59,37.76,29.59,53.22L855.47,1283.7z"/>
			<linearGradient id="SVGID_25_" gradientUnits="userSpaceOnUse" x1="839.1077" y1="1148.0179" x2="839.1077" y2="1184.2504">
				<stop  offset="0" style="stop-color:#FF928E"/>
				<stop  offset="1" style="stop-color:#FEB3B1"/>
			</linearGradient>
			<path class="st36" d="M820.82,1124.19c0.34,1.13,8.83,29.29,9.5,29.87c0.66,0.58,18.63,1.55,27.08-4.23l-14.34-30.03
				L820.82,1124.19z"/>
			<g>
				<linearGradient id="SVGID_26_" gradientUnits="userSpaceOnUse" x1="866.4771" y1="1103.8488" x2="821.6179" y2="1094.3594">
					<stop  offset="0" style="stop-color:#FF928E"/>
					<stop  offset="1" style="stop-color:#FEB3B1"/>
				</linearGradient>
				<path class="st37" d="M834.77,1065.05c0,0-15.33,6.47-25.76,28.63c-10.43,22.16-2.64,32.39,7.14,33.79
					c9.78,1.4,24.41,1.19,39.88-13.12S854.7,1057.37,834.77,1065.05z"/>
				<linearGradient id="SVGID_27_" gradientUnits="userSpaceOnUse" x1="895.5131" y1="1037.6927" x2="830.8861" y2="1100.9148">
					<stop  offset="0" style="stop-color:#09005D"/>
					<stop  offset="1" style="stop-color:#1A0F91"/>
				</linearGradient>
				<path class="st38" d="M845.63,1102.52c0,0,11.57-32.42-17.17-32.8l-6.76,4.73c0,0-10.55-17.97,6.76-26.55
					c17.31-8.58,37.57-1.49,44.93,21.83c7.37,23.32,8.62,38.93-3.63,50.08c-12.25,11.16-17.3-1.49-17.3-1.49s6.67-10.43,3.96-16.02
					c-2.72-5.58-8.98,1.15-8.98,1.15L845.63,1102.52z"/>
				<linearGradient id="SVGID_28_" gradientUnits="userSpaceOnUse" x1="865.8647" y1="1106.7439" x2="821.0053" y2="1097.2544">
					<stop  offset="0" style="stop-color:#FF928E"/>
					<stop  offset="1" style="stop-color:#FEB3B1"/>
				</linearGradient>
				<path class="st39" d="M848.85,1106.13c0,0,5.85-16.7,13.65-10.05c7.8,6.65-6.34,15.43-11.88,18.27L848.85,1106.13z"/>
			</g>
			<linearGradient id="SVGID_29_" gradientUnits="userSpaceOnUse" x1="553.0159" y1="1278.8812" x2="711.3311" y2="1278.8812">
				<stop  offset="0" style="stop-color:#FF928E"/>
				<stop  offset="1" style="stop-color:#FEB3B1"/>
			</linearGradient>
			<path class="st40" d="M796.34,1285.75l21.32-20.55l29.5,12.46c0,0,29.36,4.55,46.17,0c16.81-4.55,16.81-4.55,16.81-4.55
				l37.98-11.82l5.96,16.86c1.51,4.28-0.01,9.03-3.71,11.66c-3.29,2.33-7.14,4.9-9.59,5.97c-5,2.19-123.28-1.51-123.28-1.51
				L796.34,1285.75z"/>
		</g>
		<g>
			
				<linearGradient id="SVGID_30_" gradientUnits="userSpaceOnUse" x1="821.5903" y1="1391.6321" x2="721.9297" y2="1418.9464" gradientTransform="matrix(0.9988 -0.0494 0.0494 0.9988 8.6714 -86.798)">
				<stop  offset="0" style="stop-color:#09005D"/>
				<stop  offset="1" style="stop-color:#1A0F91"/>
			</linearGradient>
			<path class="st41" d="M877.04,1295.44c-0.09,0-0.19,0.01-0.28,0.01l-123.69-0.14c-3.06,0-5.53-2.48-5.53-5.54
				c0-3.06,2.49-5.59,5.54-5.53l123.69,0.13c3.06,0,5.53,2.48,5.53,5.54C882.29,1292.88,879.96,1295.3,877.04,1295.44z"/>
			<linearGradient id="SVGID_31_" gradientUnits="userSpaceOnUse" x1="763.1366" y1="1198.1959" x2="692.4229" y2="1272.9359">
				<stop  offset="0" style="stop-color:#09005D"/>
				<stop  offset="1" style="stop-color:#1A0F91"/>
			</linearGradient>
			<path class="st42" d="M641.86,1183.14h103.01c7.6,0,14.52,4.39,17.76,11.26l47.62,100.98H682.24c-4.9,0-9.3-2.99-11.1-7.55
				l-36.93-93.44C632.08,1188.99,636.06,1183.14,641.86,1183.14z"/>
			<linearGradient id="SVGID_32_" gradientUnits="userSpaceOnUse" x1="720.3869" y1="1216.8057" x2="688.3015" y2="1265.1227">
				<stop  offset="0" style="stop-color:#4042E2"/>
				<stop  offset="1" style="stop-color:#4F52FF"/>
			</linearGradient>
			<path class="st43" d="M714.44,1234.91c2.23,6.94,0.58,13.67-3.68,15.04c-4.27,1.37-9.54-3.14-11.77-10.07
				c-2.23-6.94-0.58-13.67,3.68-15.04C706.94,1223.47,712.2,1227.98,714.44,1234.91z"/>
		</g>
		<g>
			<linearGradient id="SVGID_33_" gradientUnits="userSpaceOnUse" x1="507.2158" y1="1285.2114" x2="628.9516" y2="1285.2114">
				<stop  offset="0" style="stop-color:#FE7062"/>
				<stop  offset="1" style="stop-color:#FF928E"/>
			</linearGradient>
			<path class="st44" d="M628.95,1291.49l-121.74,0v-12.56h121.74C626.35,1278.93,626.35,1291.49,628.95,1291.49z"/>
			<linearGradient id="SVGID_34_" gradientUnits="userSpaceOnUse" x1="565.0135" y1="1354.5081" x2="564.4918" y2="1323.2083">
				<stop  offset="0" style="stop-color:#A22B25"/>
				<stop  offset="1" style="stop-color:#C0423C"/>
			</linearGradient>
			<path class="st45" d="M508.22,1291.49c-0.55,0-1-0.45-1-1v-10.56c0-0.55,0.45-1,1-1h123.45c0.55,0,1-0.45,1-1v-0.84
				c0-0.55-0.45-1-1-1H500.25c-2.9,0-5.26,2.35-5.26,5.26v8.03c0,2.74,2.22,4.96,4.96,4.96h131.72c0.55,0,1-0.45,1-1v-0.84
				c0-0.55-0.45-1-1-1H508.22z"/>
		</g>
		<path class="st6" d="M1049.91,1299.96c0.31-1.4-0.11-2.85-1.16-3.95c-1.05-1.1-2.61-1.74-4.25-1.74H487.39
			c-2.16,0-4.18,0.96-5.34,2.54c-1.17,1.58-1.32,3.57-0.41,5.28l6.04,11.35c1.38,2.6,4.38,4.26,7.67,4.26h545.34
			c3.07,0,5.7-1.89,6.28-4.5L1049.91,1299.96z"/>
	</g>
	<g>
		<linearGradient id="SVGID_35_" gradientUnits="userSpaceOnUse" x1="1451.7882" y1="198.5331" x2="844.7518" y2="792.3731">
			<stop  offset="0" style="stop-color:#09005D"/>
			<stop  offset="1" style="stop-color:#1A0F91"/>
		</linearGradient>
		<polygon class="st46" points="724.57,669.52 721.27,663.49 953.27,536.73 1168.94,631.53 1354.12,449.88 1354.49,449.66 
			1571.93,321.34 1575.42,327.27 1358.34,455.38 1170.43,639.7 953.6,544.39 		"/>
		<linearGradient id="SVGID_36_" gradientUnits="userSpaceOnUse" x1="762.7219" y1="627.5715" x2="703.4725" y2="685.5328">
			<stop  offset="0" style="stop-color:#09005D"/>
			<stop  offset="1" style="stop-color:#1A0F91"/>
		</linearGradient>
		<path class="st47" d="M747.88,666.5c0,13.78-11.17,24.95-24.95,24.95c-13.78,0-24.95-11.17-24.95-24.95
			c0-13.78,11.17-24.95,24.95-24.95C736.7,641.55,747.88,652.72,747.88,666.5z"/>
		<linearGradient id="SVGID_37_" gradientUnits="userSpaceOnUse" x1="993.2326" y1="501.6224" x2="933.9831" y2="559.5839">
			<stop  offset="0" style="stop-color:#09005D"/>
			<stop  offset="1" style="stop-color:#1A0F91"/>
		</linearGradient>
		<circle class="st48" cx="953.43" cy="540.56" r="24.95"/>
		<linearGradient id="SVGID_38_" gradientUnits="userSpaceOnUse" x1="1209.4849" y1="591.9255" x2="1150.2352" y2="649.887">
			<stop  offset="0" style="stop-color:#09005D"/>
			<stop  offset="1" style="stop-color:#1A0F91"/>
		</linearGradient>
		<circle class="st49" cx="1169.69" cy="630.86" r="24.95"/>
		<linearGradient id="SVGID_39_" gradientUnits="userSpaceOnUse" x1="1390.0909" y1="413.6957" x2="1330.8416" y2="471.6571">
			<stop  offset="0" style="stop-color:#09005D"/>
			<stop  offset="1" style="stop-color:#1A0F91"/>
		</linearGradient>
		<circle class="st50" cx="1350.29" cy="452.63" r="24.95"/>
		<linearGradient id="SVGID_40_" gradientUnits="userSpaceOnUse" x1="1613.4724" y1="285.3702" x2="1554.2229" y2="343.3316">
			<stop  offset="0" style="stop-color:#09005D"/>
			<stop  offset="1" style="stop-color:#1A0F91"/>
		</linearGradient>
		<circle class="st51" cx="1573.67" cy="324.3" r="24.95"/>
	</g>
	<g>
		<g>
			<g>
				<path class="st26" d="M1359.61,1391.87c-3.28,4.85-16.31,114.7-18.35,155.27c-0.14,2.74,2.06,5.03,4.8,5.03l0,0
					c2.37,0,4.39-1.73,4.75-4.07l23.83-152.74L1359.61,1391.87z"/>
				<path class="st26" d="M1464.38,1391.87c3.28,4.85,16.31,114.7,18.35,155.27c0.14,2.74-2.06,5.03-4.8,5.03l0,0
					c-2.37,0-4.38-1.73-4.75-4.07l-23.83-152.74L1464.38,1391.87z"/>
				
					<linearGradient id="SVGID_41_" gradientUnits="userSpaceOnUse" x1="1049.7061" y1="1521.2046" x2="1069.5487" y2="1425.9597" gradientTransform="matrix(1 0 0 1 333.8425 0)">
					<stop  offset="0" style="stop-color:#E1473D"/>
					<stop  offset="1" style="stop-color:#E9605A"/>
				</linearGradient>
				<path class="st52" d="M1339.9,1383.3l-0.01,1.2c-0.08,8.62,7.35,15.69,16.64,15.84l110.17,1.87c9.16,0.16,16.8-6.47,17.24-14.95
					l0.06-1.1c0.46-8.85-7.05-16.3-16.61-16.47l-110.22-1.98C1347.75,1367.55,1339.98,1374.56,1339.9,1383.3z"/>
			</g>
			<g>
				<g>
					
						<linearGradient id="SVGID_42_" gradientUnits="userSpaceOnUse" x1="1188.2579" y1="1542.8188" x2="1268.1437" y2="1542.8188" gradientTransform="matrix(1 0 0 1 333.8425 0)">
						<stop  offset="0" style="stop-color:#4042E2"/>
						<stop  offset="1" style="stop-color:#4F52FF"/>
					</linearGradient>
					<path class="st53" d="M1554.22,1543.15c-19.58,0-28.25-1.68-32.12-3.21c0.75,3.22,3.62,5.76,7.24,5.76h69.28
						c2.33,0,3.81-2.23,3.25-4.26C1593.97,1542.08,1577.2,1543.15,1554.22,1543.15z"/>
					
						<linearGradient id="SVGID_43_" gradientUnits="userSpaceOnUse" x1="1249.8066" y1="1389.2075" x2="1227.9796" y2="1540.0125" gradientTransform="matrix(1 0 0 1 333.8425 0)">
						<stop  offset="0" style="stop-color:#09005D"/>
						<stop  offset="1" style="stop-color:#1A0F91"/>
					</linearGradient>
					<path class="st54" d="M1601.87,1541.44c-0.11-0.41-0.28-0.81-0.57-1.18c-5.28-6.74-15.88-17.32-30.3-17.12
						c-21.13,0.3-28.49,2.59-44.91,0.13l-3.87,12.84c-0.39,1.31-0.4,2.62-0.12,3.83c3.87,1.53,12.54,3.21,32.12,3.21
						C1577.2,1543.15,1593.97,1542.08,1601.87,1541.44z"/>
				</g>
				
					<linearGradient id="SVGID_44_" gradientUnits="userSpaceOnUse" x1="1192.2485" y1="1518.7451" x2="1213.8628" y2="1518.7451" gradientTransform="matrix(1 0 0 1 333.8425 0)">
					<stop  offset="0" style="stop-color:#FF928E"/>
					<stop  offset="1" style="stop-color:#FEB3B1"/>
				</linearGradient>
				<path class="st55" d="M1530.84,1509.44l-4.75,16.17c0,0,10.53,4.79,19.8,0.95l1.82-14.01L1530.84,1509.44z"/>
				<g>
					
						<linearGradient id="SVGID_45_" gradientUnits="userSpaceOnUse" x1="1313.5546" y1="1526.9875" x2="1378.0531" y2="1526.9875" gradientTransform="matrix(1 0 0 1 333.8425 0)">
						<stop  offset="0" style="stop-color:#4042E2"/>
						<stop  offset="1" style="stop-color:#4F52FF"/>
					</linearGradient>
					<path class="st56" d="M1674.44,1532.97c-15.27,12.27-23.07,16.39-27.04,17.63c2.59,2.02,6.41,2.2,9.23-0.07l54.01-43.4
						c1.82-1.46,1.57-4.12-0.12-5.34C1704.75,1507.24,1692.35,1518.58,1674.44,1532.97z"/>
					
						<linearGradient id="SVGID_46_" gradientUnits="userSpaceOnUse" x1="1357.9194" y1="1404.856" x2="1336.0927" y2="1555.66" gradientTransform="matrix(1 0 0 1 333.8425 0)">
						<stop  offset="0" style="stop-color:#09005D"/>
						<stop  offset="1" style="stop-color:#1A0F91"/>
					</linearGradient>
					<path class="st57" d="M1710.51,1501.8c-0.34-0.25-0.72-0.45-1.18-0.56c-8.31-1.92-23.18-3.49-34.29,5.7
						c-16.28,13.46-20.6,19.86-34.93,28.23l4.98,12.39c0.51,1.26,1.32,2.28,2.3,3.04c3.98-1.24,11.78-5.36,27.04-17.63
						C1692.35,1518.58,1704.75,1507.24,1710.51,1501.8z"/>
				</g>
				<linearGradient id="SVGID_47_" gradientUnits="userSpaceOnUse" x1="1491.1742" y1="1379.5406" x2="1474.999" y2="1455.2406">
					<stop  offset="0" style="stop-color:#09005D"/>
					<stop  offset="1" style="stop-color:#1A0F91"/>
				</linearGradient>
				<path class="st58" d="M1429.15,1325.22c0,0,117.25,9.57,141.3,20.9c24.05,11.32-19.63,170.02-19.63,170.02
					s-6.55,3.15-21.12-1.38c0,0,14.94-117.11,3.82-142.51l-126.95-20.76L1429.15,1325.22z"/>
				
					<linearGradient id="SVGID_48_" gradientUnits="userSpaceOnUse" x1="1294.6254" y1="1520.5642" x2="1320.4303" y2="1520.5642" gradientTransform="matrix(1 0 0 1 333.8425 0)">
					<stop  offset="0" style="stop-color:#FF928E"/>
					<stop  offset="1" style="stop-color:#FEB3B1"/>
				</linearGradient>
				<path class="st59" d="M1628.47,1512.88c1.09,0.99,11.65,22.29,11.65,22.29s11.76-2.54,14.16-9.98l-10.58-19.22L1628.47,1512.88z
					"/>
				<linearGradient id="SVGID_49_" gradientUnits="userSpaceOnUse" x1="1526.7213" y1="1261.801" x2="1511.8401" y2="1356.264">
					<stop  offset="0" style="stop-color:#09005D"/>
					<stop  offset="1" style="stop-color:#1A0F91"/>
				</linearGradient>
				<path class="st60" d="M1358.53,1324.24c0,0-3.82,9.19-3.66,21.41c0.22,16.9,13.8,30.61,30.68,31.45l138.61,6.32
					c2.93,0.13,5.4,2.16,6.14,5c3.26,12.6,19.18,51.29,97,128.49c2.07,2.05,5.3,2.4,7.76,0.85l11.08-7
					c1.16-0.73,1.53-2.26,0.84-3.45l-80.71-137.82c-4.24-7-11.05-12.05-18.98-14.07l-118.14-30.2L1358.53,1324.24z"/>
				<linearGradient id="SVGID_50_" gradientUnits="userSpaceOnUse" x1="1506.8588" y1="1139.3268" x2="1546.3262" y2="1115.3876">
					<stop  offset="0" style="stop-color:#FF928E"/>
					<stop  offset="1" style="stop-color:#FEB3B1"/>
				</linearGradient>
				<path class="st61" d="M1519.33,1112.05c0,0-39.05,23.16-54.19,35.88l31.29,17.46c0,0,16.91-19.53,33.02-27.67L1519.33,1112.05z"
					/>
				<linearGradient id="SVGID_51_" gradientUnits="userSpaceOnUse" x1="1493.6975" y1="1258.9504" x2="1411.2019" y2="1464.4393">
					<stop  offset="0" style="stop-color:#09005D"/>
					<stop  offset="1" style="stop-color:#1A0F91"/>
				</linearGradient>
				<path class="st62" d="M1356.01,1325.22c0,0,37.42,9.12,73.14,0c0,0,49.98-67.19,69.31-85.47c0,0,30.84,48.67,99.49,55.56
					l3.83-8.56c0,0-54.65-25.19-71.48-63.9c-16.82-38.71-23.58-55.22-38.89-65.32c-9.53-6.29-15.24-10.59-18.19-12.93
					c-1.62-1.28-3.84-1.43-5.61-0.36C1451.37,1154.15,1374.94,1206.5,1356.01,1325.22z"/>
				<g>
					<linearGradient id="SVGID_52_" gradientUnits="userSpaceOnUse" x1="1505.8055" y1="1199.7405" x2="1408.3231" y2="1305.8495">
						<stop  offset="0" style="stop-color:#4042E2"/>
						<stop  offset="1" style="stop-color:#4F52FF"/>
					</linearGradient>
					<path class="st63" d="M1496.43,1237.22c0.17,0,0.35-0.05,0.49-0.17c0.36-0.27,0.42-0.78,0.15-1.14
						c-11.63-15.17-18.31-32.41-18.38-32.58c-0.16-0.42-0.63-0.63-1.05-0.47c-0.42,0.16-0.63,0.63-0.47,1.05
						c0.07,0.17,6.83,17.63,18.61,32.99C1495.94,1237.11,1496.18,1237.22,1496.43,1237.22z"/>
				</g>
				
					<linearGradient id="SVGID_53_" gradientUnits="userSpaceOnUse" x1="1259.9781" y1="1281.701" x2="1319.5844" y2="1281.701" gradientTransform="matrix(1 0 0 1 333.8425 0)">
					<stop  offset="0" style="stop-color:#F9B776"/>
					<stop  offset="1" style="stop-color:#F47960"/>
				</linearGradient>
				<path class="st64" d="M1593.82,1282.29l7.73-2.06l23.46-5.43c2.82-0.65,5.79-0.15,8.25,1.39l20.17,12.69l-55.71-0.09
					L1593.82,1282.29z"/>
			</g>
			<g>
				<g>
					<path class="st1" d="M1572.3,1299.81c0.09,0,0.18,0.01,0.27,0.01l119.01-0.12c2.94,0,5.32-2.39,5.32-5.32
						c0-2.94-2.4-5.36-5.33-5.31l-119.01,0.12c-2.94,0-5.32,2.39-5.32,5.32C1567.24,1297.35,1569.48,1299.67,1572.3,1299.81z"/>
				</g>
				<g>
					<path class="st1" d="M1737.67,1183.26c-0.04,0.08-0.08,0.16-0.12,0.25l-50.07,107.96c-1.24,2.67-0.08,5.83,2.58,7.07
						c2.67,1.24,5.88,0.09,7.07-2.6l50.07-107.96c1.24-2.67,0.08-5.83-2.58-7.07C1742.03,1179.72,1738.98,1180.77,1737.67,1183.26z"
						/>
				</g>
			</g>
			<g>
				<path class="st6" d="M1625.29,1305.78c-0.52,2.15-50.18,188.39-62.77,235.61c-1.45,5.44,2.6,10.78,8.17,10.78l0,0
					c3.88,0,7.27-2.68,8.21-6.49l55.12-223.49L1625.29,1305.78z"/>
				<path class="st6" d="M1652.48,1305.78c0.52,2.15,50.18,188.39,62.77,235.61c1.45,5.44-2.6,10.78-8.17,10.78l0,0
					c-3.88,0-7.27-2.68-8.21-6.49l-55.12-223.49L1652.48,1305.78z"/>
				<path class="st6" d="M1654.55,1299.69h-30.93v24.84c0,3.57,2.86,6.46,6.39,6.46h4.24v55.79c0,2.7,2.16,4.89,4.83,4.89l0,0
					c2.67,0,4.83-2.19,4.83-4.89v-55.79h2.15c4.68,0,8.48-3.84,8.48-8.58V1299.69z"/>
				<linearGradient id="SVGID_54_" gradientUnits="userSpaceOnUse" x1="1644.4885" y1="1049.9373" x2="1638.0183" y2="1210.396">
					<stop  offset="0" style="stop-color:#09005D"/>
					<stop  offset="1" style="stop-color:#1A0F91"/>
				</linearGradient>
				<path class="st65" d="M1547.58,1293.73h172.69c2.41,0,4.52,1.65,5.12,4.02l2.41,9.45c0.87,3.4-1.68,6.72-5.16,6.69l-177.19-1.03
					c-3.43-0.02-5.94-3.29-5.1-6.66l2.1-8.42C1543.04,1295.4,1545.16,1293.73,1547.58,1293.73z"/>
			</g>
		</g>
		<g>
			<linearGradient id="SVGID_55_" gradientUnits="userSpaceOnUse" x1="1547.3302" y1="1109.943" x2="1500.7456" y2="1140.9995">
				<stop  offset="0" style="stop-color:#FF928E"/>
				<stop  offset="1" style="stop-color:#FEB3B1"/>
			</linearGradient>
			<path class="st66" d="M1546.05,1102.92c0,0,0.36,27.72-4.12,40.31c-4.48,12.59-5.18,21.68-20.44,18.19
				c-15.26-3.49-24.27-15.61-25.62-30.59c0,0-2.24-23.15,3.28-29.92C1504.68,1094.13,1546.05,1102.92,1546.05,1102.92z"/>
			
				<linearGradient id="SVGID_56_" gradientUnits="userSpaceOnUse" x1="1735.3618" y1="-591.564" x2="1792.6393" y2="-517.8193" gradientTransform="matrix(0.922 0.3871 -0.3871 0.922 -315.6554 945.6825)">
				<stop  offset="0" style="stop-color:#09005D"/>
				<stop  offset="1" style="stop-color:#1A0F91"/>
			</linearGradient>
			<path class="st67" d="M1504.43,1124.06l1.8,0.75c0,0-1.03-18.31,6.6-18.24c7.63,0.06,35.62,5.63,45.03-1.18
				c9.07-6.57,9.07-19.97,3.25-26.16c-0.37-0.39-0.99-0.4-1.41-0.06l-1.06,0.87c-0.73,0.6-1.81,0.01-1.71-0.93l0,0
				c0.1-0.89-0.89-1.51-1.62-0.99c-2.85,2.02-9.33,4.53-22.66,1.62c-18.91-4.13-33.49-1.9-38.87,10.11
				c-0.34,0.76-1.34,0.84-1.83,0.16c-0.96-1.33-2.88-2.57-6.63-1.41c-6.52,2.03-8.96,13.37-2.03,26.45c0.33,0.62,0,1.4-0.7,1.53
				c-2.44,0.44-6.54,2.21-0.8,9.27c5.87,7.22,10.53,8.66,12.4,8.94c0.5,0.07,0.98-0.21,1.15-0.69l3.85-11.03
				c0.2-0.57,0.84-0.85,1.39-0.62L1504.43,1124.06z"/>
			<linearGradient id="SVGID_57_" gradientUnits="userSpaceOnUse" x1="1537.6876" y1="1095.4794" x2="1491.103" y2="1126.5358">
				<stop  offset="0" style="stop-color:#FF928E"/>
				<stop  offset="1" style="stop-color:#FEB3B1"/>
			</linearGradient>
			<path class="st68" d="M1503.93,1126.49c0,0,2.39-16.6-6.08-15.22c-8.47,1.38-3.56,18.24,1.6,21.06L1503.93,1126.49z"/>
		</g>
	</g>
	<g>
		
			<ellipse transform="matrix(0.6037 -0.7972 0.7972 0.6037 -13.239 1739.3629)" class="st69" cx="1742.89" cy="883" rx="70.95" ry="70.95"/>
		
			<ellipse transform="matrix(0.9252 -0.3795 0.3795 0.9252 -204.7067 727.3821)" class="st70" cx="1742.89" cy="883" rx="68.59" ry="68.59"/>
		<path class="st71" d="M1686.34,856.8c-0.35,0-0.7-0.08-1.03-0.25c-1.13-0.57-1.58-1.95-1.01-3.08
			c11.23-22.26,33.69-36.08,58.6-36.08c3.98,0,7.96,0.36,11.83,1.06c1.25,0.23,2.07,1.42,1.85,2.67c-0.23,1.25-1.41,2.08-2.67,1.85
			c-3.6-0.65-7.31-0.99-11.01-0.99c-23.17,0-44.06,12.86-54.51,33.56C1687.98,856.34,1687.17,856.8,1686.34,856.8z"/>
		<circle class="st72" cx="1744.39" cy="884.49" r="58.05"/>
		<path class="st8" d="M1773.37,870.59c-0.42-0.29-0.95-0.43-1.6-0.43h-11.92c-0.79-2.66-2.28-4.97-4.46-6.93h16.25
			c0.65,0,1.19-0.14,1.6-0.43c0.42-0.29,0.63-0.66,0.63-1.11v-4.91c0-0.45-0.21-0.82-0.63-1.11c-0.42-0.29-0.95-0.43-1.6-0.43
			h-58.02c-0.65,0-1.19,0.14-1.6,0.43c-0.42,0.29-0.63,0.66-0.63,1.11v6.4c0,0.42,0.22,0.78,0.66,1.08c0.44,0.3,0.96,0.46,1.57,0.46
			h10.11c9.81,0,16.04,1.81,18.69,5.44h-28.8c-0.65,0-1.19,0.14-1.6,0.44c-0.42,0.29-0.63,0.65-0.63,1.1v4.91
			c0,0.45,0.21,0.82,0.63,1.11c0.42,0.29,0.95,0.43,1.6,0.43h29.78c-1.02,2.63-3.41,4.64-7.15,6.02c-3.74,1.38-8.68,2.07-14.82,2.07
			h-7.81c-0.61,0-1.13,0.15-1.57,0.46c-0.44,0.31-0.66,0.67-0.66,1.08v6.11c0,0.42,0.21,0.77,0.63,1.06
			c8.93,6.54,20.51,15.7,34.73,27.48c0.42,0.38,1,0.58,1.74,0.58h13.6c0.97,0,1.65-0.29,2.02-0.87c0.47-0.58,0.38-1.12-0.28-1.64
			c-13.58-11.48-24.25-20.08-32.01-25.8c7.9-0.64,14.32-2.41,19.25-5.29c4.93-2.89,7.93-6.64,9-11.26h11.72
			c0.65,0,1.19-0.14,1.6-0.44c0.42-0.29,0.63-0.66,0.63-1.1v-4.91C1774,871.25,1773.79,870.88,1773.37,870.59L1773.37,870.59z"/>
	</g>
	<g>
		
			<ellipse transform="matrix(0.2905 -0.9569 0.9569 0.2905 411.9427 2705.0005)" class="st73" cx="2030.02" cy="1074.72" rx="127.08" ry="127.08"/>
		
			<ellipse transform="matrix(0.7071 -0.7071 0.7071 0.7071 -165.3615 1750.2169)" class="st74" cx="2030.02" cy="1074.72" rx="122.86" ry="122.86"/>
		<path class="st71" d="M1928.71,1025.98c-0.35,0-0.7-0.08-1.03-0.25c-1.13-0.57-1.58-1.95-1.01-3.08
			c19.81-39.25,59.42-63.64,103.35-63.64c7.01,0,14.03,0.63,20.87,1.88c1.25,0.23,2.07,1.42,1.85,2.67
			c-0.23,1.25-1.41,2.08-2.67,1.84c-6.57-1.2-13.31-1.8-20.05-1.8c-42.2,0-80.23,23.42-99.26,61.12
			C1930.35,1025.52,1929.55,1025.98,1928.71,1025.98z"/>
		
			<ellipse transform="matrix(0.2323 -0.9726 0.9726 0.2323 512.514 2804.1479)" class="st72" cx="2032.69" cy="1077.39" rx="103.98" ry="103.98"/>
		<path class="st8" d="M2088.76,1040.66c-0.66-0.57-1.5-0.86-2.52-0.86h-18.73c-1.24-5.27-3.58-9.86-7.01-13.73h25.52
			c1.03,0,1.87-0.29,2.52-0.86c0.66-0.57,0.98-1.3,0.98-2.19v-9.73c0-0.89-0.33-1.62-0.98-2.19c-0.66-0.57-1.5-0.86-2.52-0.86
			h-91.14c-1.02,0-1.86,0.29-2.52,0.86c-0.66,0.57-0.98,1.3-0.98,2.19v12.68c0,0.83,0.35,1.54,1.04,2.15c0.69,0.6,1.51,0.9,2.46,0.9
			h15.88c15.41,0,25.2,3.59,29.36,10.77h-45.24c-1.02,0-1.86,0.29-2.52,0.86c-0.66,0.57-0.98,1.3-0.98,2.19v9.73
			c0,0.89,0.33,1.62,0.98,2.19c0.66,0.57,1.5,0.86,2.52,0.86h46.78c-1.61,5.22-5.35,9.19-11.23,11.92
			c-5.88,2.73-13.64,4.1-23.27,4.1h-12.27c-0.95,0-1.77,0.3-2.46,0.9c-0.7,0.61-1.04,1.32-1.04,2.15v12.11
			c0,0.83,0.33,1.53,0.98,2.1c14.02,12.97,32.21,31.12,54.56,54.45c0.66,0.76,1.57,1.14,2.74,1.14h21.36c1.53,0,2.59-0.57,3.17-1.72
			c0.74-1.14,0.59-2.22-0.43-3.24c-21.33-22.76-38.09-39.8-50.29-51.12c12.41-1.27,22.49-4.77,30.23-10.49
			c7.74-5.72,12.45-13.16,14.14-22.31h18.4c1.03,0,1.87-0.29,2.52-0.86c0.66-0.57,0.99-1.3,0.99-2.19v-9.73
			C2089.75,1041.97,2089.42,1041.23,2088.76,1040.66L2088.76,1040.66z"/>
	</g>
	<g>
		
			<ellipse transform="matrix(0.0757 -0.9971 0.9971 0.0757 1127.9937 3020.0969)" class="st75" cx="2193.05" cy="901.6" rx="93.11" ry="93.11"/>
		
			<ellipse transform="matrix(0.4282 -0.9037 0.9037 0.4282 439.1715 2497.3071)" class="st70" cx="2193.05" cy="901.6" rx="90.02" ry="90.02"/>
		<path class="st71" d="M2118.82,866.5c-0.35,0-0.7-0.08-1.03-0.25c-1.13-0.57-1.58-1.95-1.01-3.08
			c14.62-28.97,43.85-46.96,76.27-46.96c5.17,0,10.35,0.47,15.4,1.39c1.25,0.23,2.07,1.42,1.85,2.67c-0.23,1.25-1.41,2.09-2.67,1.85
			c-4.78-0.87-9.69-1.31-14.58-1.31c-30.68,0-58.34,17.03-72.18,44.44C2120.47,866.04,2119.66,866.5,2118.82,866.5z"/>
		
			<ellipse transform="matrix(0.8858 -0.4641 0.4641 0.8858 -168.6364 1121.9105)" class="st72" cx="2195.01" cy="903.57" rx="76.19" ry="76.19"/>
		<path class="st8" d="M2227.33,878.79c-0.44-0.48-1.01-0.72-1.71-0.72h-12.69c-0.84-4.43-2.42-8.28-4.75-11.53h17.28
			c0.69,0,1.26-0.24,1.71-0.72c0.45-0.48,0.67-1.09,0.67-1.84v-8.17c0-0.75-0.22-1.36-0.67-1.84c-0.44-0.48-1.01-0.72-1.71-0.72
			h-61.73c-0.69,0-1.26,0.24-1.71,0.72c-0.45,0.48-0.67,1.09-0.67,1.84v10.65c0,0.7,0.24,1.3,0.71,1.8c0.47,0.5,1.02,0.76,1.67,0.76
			h10.76c10.44,0,17.07,3.01,19.89,9.05h-30.64c-0.69,0-1.26,0.24-1.71,0.72c-0.45,0.48-0.67,1.09-0.67,1.84v8.17
			c0,0.75,0.22,1.36,0.67,1.84c0.45,0.48,1.01,0.72,1.71,0.72h31.68c-1.09,4.38-3.62,7.72-7.61,10.01
			c-3.98,2.29-9.24,3.45-15.76,3.45h-8.31c-0.64,0-1.2,0.25-1.67,0.76c-0.47,0.51-0.71,1.11-0.71,1.8v10.17
			c0,0.7,0.22,1.28,0.67,1.76c9.5,10.89,21.82,26.13,36.95,45.73c0.45,0.64,1.06,0.96,1.85,0.96h14.47c1.04,0,1.76-0.48,2.15-1.44
			c0.5-0.96,0.4-1.87-0.29-2.72c-14.44-19.11-25.8-33.42-34.06-42.93c8.41-1.07,15.23-4,20.48-8.81c5.24-4.81,8.44-11.05,9.57-18.74
			h12.46c0.69,0,1.26-0.24,1.71-0.72c0.45-0.48,0.67-1.09,0.67-1.84v-8.17C2228,879.88,2227.78,879.27,2227.33,878.79
			L2227.33,878.79z"/>
	</g>
	<g>
		<g>
			
				<ellipse transform="matrix(0.7071 -0.7071 0.7071 0.7071 4.7484 1609.1927)" class="st76" cx="1944.84" cy="798.86" rx="123.5" ry="123.5"/>
			
				<ellipse transform="matrix(0.2274 -0.9738 0.9738 0.2274 724.6036 2511.0601)" class="st70" cx="1944.84" cy="798.86" rx="119.4" ry="119.4"/>
			<path class="st71" d="M1846.39,751.56c-0.35,0-0.7-0.08-1.03-0.25c-1.13-0.57-1.58-1.95-1.01-3.08
				c19.27-38.17,57.78-61.88,100.5-61.88c6.82,0,13.65,0.61,20.29,1.83c1.25,0.23,2.07,1.42,1.85,2.67
				c-0.23,1.25-1.42,2.09-2.67,1.84c-6.38-1.16-12.93-1.75-19.47-1.75c-40.98,0-77.92,22.75-96.41,59.36
				C1848.03,751.1,1847.22,751.56,1846.39,751.56z"/>
			<circle class="st72" cx="1947.44" cy="801.47" r="101.06"/>
		</g>
		<path class="st8" d="M1993.02,770.15c-0.66-0.57-1.5-0.86-2.52-0.86h-18.73c-1.24-5.27-3.58-9.86-7.01-13.73h25.52
			c1.03,0,1.87-0.29,2.52-0.86c0.66-0.57,0.98-1.3,0.98-2.19v-9.73c0-0.89-0.33-1.62-0.98-2.19c-0.66-0.57-1.5-0.86-2.52-0.86
			h-91.14c-1.02,0-1.86,0.29-2.52,0.86c-0.66,0.57-0.98,1.3-0.98,2.19v12.68c0,0.83,0.35,1.54,1.04,2.15c0.69,0.6,1.51,0.9,2.46,0.9
			h15.88c15.41,0,25.2,3.59,29.36,10.77h-45.24c-1.02,0-1.86,0.29-2.52,0.86c-0.66,0.57-0.98,1.3-0.98,2.19v9.73
			c0,0.89,0.33,1.62,0.98,2.19c0.66,0.57,1.5,0.86,2.52,0.86h46.78c-1.61,5.22-5.35,9.19-11.23,11.92
			c-5.88,2.73-13.64,4.1-23.27,4.1h-12.27c-0.95,0-1.77,0.3-2.46,0.9c-0.7,0.61-1.04,1.32-1.04,2.15v12.11
			c0,0.83,0.33,1.53,0.98,2.1c14.02,12.97,32.21,31.12,54.56,54.45c0.66,0.76,1.57,1.14,2.74,1.14h21.36c1.53,0,2.59-0.57,3.17-1.72
			c0.74-1.14,0.59-2.22-0.43-3.24c-21.33-22.76-38.09-39.8-50.29-51.12c12.41-1.27,22.49-4.77,30.23-10.49
			c7.74-5.72,12.45-13.16,14.14-22.31h18.4c1.03,0,1.87-0.29,2.52-0.86c0.66-0.57,0.98-1.3,0.98-2.19v-9.73
			C1994,771.45,1993.67,770.72,1993.02,770.15L1993.02,770.15z"/>
	</g>
	<path class="st77" d="M1993.02,771.15"/>
</g>
</svg>
